<svg width="18" height="18" viewBox="0 0 18 18" fill="none" xmlns="http://www.w3.org/2000/svg">
<path d="M2.79803 17.4013C2.26678 17.4013 1.81216 17.2123 1.43417 16.8343C1.05617 16.4563 0.866855 16.0013 0.866211 15.4694V1.94671C0.866211 1.41546 1.05553 0.96084 1.43417 0.582847C1.8128 0.204855 2.26742 0.0155365 2.79803 0.0148926H8.59348C8.86716 0.0148926 9.09672 0.10762 9.28218 0.293074C9.46763 0.478529 9.56004 0.707771 9.55939 0.980802C9.55875 1.25383 9.46602 1.4834 9.28121 1.66949C9.0964 1.85559 8.86716 1.948 8.59348 1.94671H2.79803V15.4694H8.59348C8.86716 15.4694 9.09672 15.5622 9.28218 15.7476C9.46763 15.9331 9.56004 16.1623 9.55939 16.4353C9.55875 16.7084 9.46602 16.9379 9.28121 17.124C9.0964 17.3101 8.86716 17.4025 8.59348 17.4013H2.79803ZM14.558 9.67398H7.62757C7.3539 9.67398 7.12466 9.58125 6.93985 9.3958C6.75504 9.21035 6.66231 8.9811 6.66167 8.70807C6.66102 8.43504 6.75375 8.2058 6.93985 8.02035C7.12595 7.83489 7.35519 7.74216 7.62757 7.74216H14.558L12.7469 5.93109C12.5698 5.754 12.4813 5.53667 12.4813 5.2791C12.4813 5.02152 12.5698 4.79614 12.7469 4.60296C12.924 4.40978 13.1494 4.309 13.423 4.30063C13.6967 4.29226 13.9301 4.38499 14.1233 4.57881L17.5764 8.03194C17.7696 8.22512 17.8662 8.4505 17.8662 8.70807C17.8662 8.96565 17.7696 9.19103 17.5764 9.38421L14.1233 12.8373C13.9301 13.0305 13.7009 13.1232 13.4356 13.1155C13.1703 13.1078 12.9407 13.007 12.7469 12.8132C12.5698 12.62 12.4855 12.3908 12.4938 12.1255C12.5022 11.8602 12.5946 11.6386 12.771 11.4609L14.558 9.67398Z" fill="white"/>
</svg>
