<svg width="24" height="24" viewBox="0 0 24 24" fill="none" xmlns="http://www.w3.org/2000/svg">
<path d="M12.5939 23.2582L12.5819 23.2602L12.5109 23.2952L12.4909 23.2992L12.4769 23.2952L12.4059 23.2592C12.3953 23.2565 12.3873 23.2585 12.3819 23.2652L12.3779 23.2752L12.3609 23.7032L12.3659 23.7232L12.3759 23.7362L12.4799 23.8102L12.4949 23.8142L12.5069 23.8102L12.6109 23.7362L12.6229 23.7202L12.6269 23.7032L12.6099 23.2762C12.6073 23.2655 12.6019 23.2595 12.5939 23.2582ZM12.8579 23.1452L12.8439 23.1472L12.6599 23.2402L12.6499 23.2502L12.6469 23.2612L12.6649 23.6912L12.6699 23.7032L12.6779 23.7112L12.8789 23.8032C12.8916 23.8065 12.9013 23.8038 12.9079 23.7952L12.9119 23.7812L12.8779 23.1672C12.8746 23.1545 12.8679 23.1472 12.8579 23.1452ZM12.1429 23.1472C12.1385 23.1445 12.1333 23.1436 12.1282 23.1448C12.1232 23.1459 12.1188 23.1489 12.1159 23.1532L12.1099 23.1672L12.0759 23.7812C12.0766 23.7932 12.0823 23.8012 12.0929 23.8052L12.1079 23.8032L12.3089 23.7102L12.3189 23.7022L12.3219 23.6912L12.3399 23.2612L12.3369 23.2492L12.3269 23.2392L12.1429 23.1472Z" fill="#9E9E9E"/>
<path d="M20.66 7.00009C23.422 11.7831 21.783 17.9001 17 20.6601C12.877 23.0401 7.76703 22.1511 4.66503 18.8001C4.48938 18.6047 4.39768 18.348 4.40977 18.0855C4.42186 17.8231 4.53676 17.5759 4.72964 17.3975C4.92252 17.219 5.17787 17.1237 5.44048 17.1321C5.7031 17.1404 5.95188 17.2518 6.13303 17.4421C7.36856 18.7745 9.0209 19.6466 10.8181 19.9149C12.6153 20.1832 14.4503 19.8316 16.0211 18.9181C17.5919 18.0045 18.8049 16.5835 19.4604 14.8887C20.116 13.194 20.1751 11.3265 19.6279 9.59375C19.0808 7.86096 17.96 6.36606 16.4501 5.35508C14.9402 4.3441 13.1311 3.87726 11.3205 4.03142C9.50995 4.18557 7.80581 4.95151 6.48854 6.2032C5.17127 7.45489 4.31937 9.11774 4.07303 10.9181L5.35403 10.5831C6.40103 10.3101 7.17203 11.5531 6.46203 12.3701L4.21003 14.9571C3.64203 15.6091 2.54503 15.3871 2.31803 14.5131C1.7685 12.395 1.92889 10.1551 2.7746 8.13692C3.62032 6.11874 5.10467 4.43366 7.00003 3.34009C11.783 0.579087 17.899 2.21709 20.66 7.00009ZM12 6.00009C12.2653 6.00009 12.5196 6.10544 12.7071 6.29298C12.8947 6.48052 13 6.73487 13 7.00009V11.5861L15.707 14.2931C15.8025 14.3853 15.8787 14.4957 15.9311 14.6177C15.9835 14.7397 16.0111 14.8709 16.0123 15.0037C16.0134 15.1365 15.9881 15.2681 15.9379 15.391C15.8876 15.5139 15.8133 15.6256 15.7194 15.7195C15.6255 15.8134 15.5139 15.8876 15.391 15.9379C15.2681 15.9882 15.1364 16.0135 15.0036 16.0123C14.8709 16.0112 14.7396 15.9836 14.6176 15.9312C14.4956 15.8788 14.3853 15.8026 14.293 15.7071L11.293 12.7071C11.1055 12.5196 11.0001 12.2653 11 12.0001V7.00009C11 6.73487 11.1054 6.48052 11.2929 6.29298C11.4805 6.10544 11.7348 6.00009 12 6.00009Z" fill="#9E9E9E"/>
</svg>
