<svg width="166" height="25" viewBox="0 0 166 25" fill="none" xmlns="http://www.w3.org/2000/svg">
<path d="M0.274227 19.2417V2.4417H4.16223V19.2417H0.274227ZM18.1332 6.1377C19.1572 6.1377 20.0692 6.3457 20.8692 6.7617C21.6852 7.1617 22.3252 7.7857 22.7892 8.6337C23.2532 9.4657 23.4852 10.5377 23.4852 11.8497V19.2417H19.7412V12.4257C19.7412 11.3857 19.5092 10.6177 19.0452 10.1217C18.5972 9.6257 17.9572 9.3777 17.1252 9.3777C16.5332 9.3777 15.9972 9.5057 15.5172 9.7617C15.0532 10.0017 14.6852 10.3777 14.4132 10.8897C14.1572 11.4017 14.0292 12.0577 14.0292 12.8577V19.2417H10.2852V6.3297H13.8612V9.9057L13.1892 8.8257C13.6532 7.9617 14.3172 7.2977 15.1812 6.8337C16.0452 6.3697 17.0292 6.1377 18.1332 6.1377ZM33.623 19.4337C32.519 19.4337 31.455 19.3057 30.431 19.0497C29.423 18.7777 28.623 18.4417 28.031 18.0417L29.279 15.3537C29.871 15.7217 30.567 16.0257 31.367 16.2657C32.183 16.4897 32.983 16.6017 33.767 16.6017C34.631 16.6017 35.239 16.4977 35.591 16.2897C35.959 16.0817 36.143 15.7937 36.143 15.4257C36.143 15.1217 35.999 14.8977 35.711 14.7537C35.439 14.5937 35.071 14.4737 34.607 14.3937C34.143 14.3137 33.631 14.2337 33.071 14.1537C32.527 14.0737 31.975 13.9697 31.415 13.8417C30.855 13.6977 30.343 13.4897 29.879 13.2177C29.415 12.9457 29.039 12.5777 28.751 12.1137C28.479 11.6497 28.343 11.0497 28.343 10.3137C28.343 9.4977 28.575 8.7777 29.039 8.1537C29.519 7.5297 30.207 7.0417 31.103 6.6897C31.999 6.3217 33.071 6.1377 34.319 6.1377C35.199 6.1377 36.095 6.2337 37.007 6.4257C37.919 6.6177 38.679 6.8977 39.287 7.2657L38.039 9.9297C37.415 9.5617 36.783 9.3137 36.143 9.1857C35.519 9.0417 34.911 8.9697 34.319 8.9697C33.487 8.9697 32.879 9.0817 32.495 9.3057C32.111 9.5297 31.919 9.8177 31.919 10.1697C31.919 10.4897 32.055 10.7297 32.327 10.8897C32.615 11.0497 32.991 11.1777 33.455 11.2737C33.919 11.3697 34.423 11.4577 34.967 11.5377C35.527 11.6017 36.087 11.7057 36.647 11.8497C37.207 11.9937 37.711 12.2017 38.159 12.4737C38.623 12.7297 38.999 13.0897 39.287 13.5537C39.575 14.0017 39.719 14.5937 39.719 15.3297C39.719 16.1297 39.479 16.8417 38.999 17.4657C38.519 18.0737 37.823 18.5537 36.911 18.9057C36.015 19.2577 34.919 19.4337 33.623 19.4337ZM44.429 19.2417V6.3297H48.173V19.2417H44.429ZM46.301 4.5297C45.613 4.5297 45.053 4.3297 44.621 3.9297C44.189 3.5297 43.973 3.0337 43.973 2.4417C43.973 1.8497 44.189 1.3537 44.621 0.953699C45.053 0.553698 45.613 0.353698 46.301 0.353698C46.989 0.353698 47.549 0.545698 47.981 0.929699C48.413 1.2977 48.629 1.7777 48.629 2.3697C48.629 2.9937 48.413 3.5137 47.981 3.9297C47.565 4.3297 47.005 4.5297 46.301 4.5297ZM60.1197 24.0897C58.9037 24.0897 57.7277 23.9377 56.5917 23.6337C55.4717 23.3457 54.5357 22.9057 53.7837 22.3137L55.2717 19.6257C55.8157 20.0737 56.5037 20.4257 57.3357 20.6817C58.1837 20.9537 59.0157 21.0897 59.8317 21.0897C61.1597 21.0897 62.1197 20.7937 62.7117 20.2017C63.3197 19.6097 63.6237 18.7297 63.6237 17.5617V15.6177L63.8637 12.3777L63.8157 9.1137V6.3297H67.3677V17.0817C67.3677 19.4817 66.7437 21.2497 65.4957 22.3857C64.2477 23.5217 62.4557 24.0897 60.1197 24.0897ZM59.5437 18.6177C58.3437 18.6177 57.2557 18.3617 56.2797 17.8497C55.3197 17.3217 54.5437 16.5937 53.9517 15.6657C53.3757 14.7217 53.0877 13.6257 53.0877 12.3777C53.0877 11.1137 53.3757 10.0177 53.9517 9.0897C54.5437 8.1457 55.3197 7.4177 56.2797 6.9057C57.2557 6.3937 58.3437 6.1377 59.5437 6.1377C60.6317 6.1377 61.5917 6.3617 62.4237 6.8097C63.2557 7.2417 63.9037 7.9217 64.3677 8.8497C64.8317 9.7617 65.0637 10.9377 65.0637 12.3777C65.0637 13.8017 64.8317 14.9777 64.3677 15.9057C63.9037 16.8177 63.2557 17.4977 62.4237 17.9457C61.5917 18.3937 60.6317 18.6177 59.5437 18.6177ZM60.2877 15.5457C60.9437 15.5457 61.5277 15.4177 62.0397 15.1617C62.5517 14.8897 62.9517 14.5137 63.2397 14.0337C63.5277 13.5537 63.6717 13.0017 63.6717 12.3777C63.6717 11.7377 63.5277 11.1857 63.2397 10.7217C62.9517 10.2417 62.5517 9.8737 62.0397 9.6177C61.5277 9.3457 60.9437 9.2097 60.2877 9.2097C59.6317 9.2097 59.0477 9.3457 58.5357 9.6177C58.0237 9.8737 57.6157 10.2417 57.3117 10.7217C57.0237 11.1857 56.8797 11.7377 56.8797 12.3777C56.8797 13.0017 57.0237 13.5537 57.3117 14.0337C57.6157 14.5137 58.0237 14.8897 58.5357 15.1617C59.0477 15.4177 59.6317 15.5457 60.2877 15.5457ZM81.1004 6.1377C82.1244 6.1377 83.0364 6.3457 83.8364 6.7617C84.6524 7.1617 85.2924 7.7857 85.7564 8.6337C86.2204 9.4657 86.4524 10.5377 86.4524 11.8497V19.2417H82.7084V12.4257C82.7084 11.3857 82.4764 10.6177 82.0124 10.1217C81.5644 9.6257 80.9244 9.3777 80.0924 9.3777C79.5004 9.3777 78.9644 9.5057 78.4844 9.7617C78.0204 10.0017 77.6524 10.3777 77.3804 10.8897C77.1244 11.4017 76.9964 12.0577 76.9964 12.8577V19.2417H73.2524V1.4337H76.9964V9.9057L76.1564 8.8257C76.6204 7.9617 77.2844 7.2977 78.1484 6.8337C79.0124 6.3697 79.9964 6.1377 81.1004 6.1377ZM97.5262 19.4337C96.0062 19.4337 94.8222 19.0497 93.9742 18.2817C93.1262 17.4977 92.7022 16.3377 92.7022 14.8017V3.4737H96.4462V14.7537C96.4462 15.2977 96.5902 15.7217 96.8782 16.0257C97.1662 16.3137 97.5582 16.4577 98.0542 16.4577C98.6462 16.4577 99.1502 16.2977 99.5662 15.9777L100.574 18.6177C100.19 18.8897 99.7262 19.0977 99.1822 19.2417C98.6542 19.3697 98.1022 19.4337 97.5262 19.4337ZM90.7102 9.4977V6.6177H99.6622V9.4977H90.7102Z" fill="white"/>
<path d="M110.86 19.5297C109.516 19.5297 108.228 19.3537 106.996 19.0017C105.764 18.6337 104.772 18.1617 104.02 17.5857L105.34 14.6577C106.06 15.1697 106.908 15.5937 107.884 15.9297C108.876 16.2497 109.876 16.4097 110.884 16.4097C111.652 16.4097 112.268 16.3377 112.732 16.1937C113.212 16.0337 113.564 15.8177 113.788 15.5457C114.012 15.2737 114.124 14.9617 114.124 14.6097C114.124 14.1617 113.948 13.8097 113.596 13.5537C113.244 13.2817 112.78 13.0657 112.204 12.9057C111.628 12.7297 110.988 12.5697 110.284 12.4257C109.596 12.2657 108.9 12.0737 108.196 11.8497C107.508 11.6257 106.876 11.3377 106.3 10.9857C105.724 10.6337 105.252 10.1697 104.884 9.5937C104.532 9.0177 104.356 8.2817 104.356 7.3857C104.356 6.4257 104.612 5.5537 105.124 4.7697C105.652 3.9697 106.436 3.3377 107.476 2.8737C108.532 2.3937 109.852 2.1537 111.436 2.1537C112.492 2.1537 113.532 2.2817 114.556 2.5377C115.58 2.7777 116.484 3.1457 117.268 3.6417L116.068 6.5937C115.284 6.1457 114.5 5.8177 113.716 5.6097C112.932 5.3857 112.164 5.2737 111.412 5.2737C110.66 5.2737 110.044 5.3617 109.564 5.5377C109.084 5.7137 108.74 5.9457 108.532 6.2337C108.324 6.5057 108.22 6.8257 108.22 7.1937C108.22 7.6257 108.396 7.9777 108.748 8.2497C109.1 8.5057 109.564 8.7137 110.14 8.8737C110.716 9.0337 111.348 9.1937 112.036 9.3537C112.74 9.5137 113.436 9.6977 114.124 9.9057C114.828 10.1137 115.468 10.3937 116.044 10.7457C116.62 11.0977 117.084 11.5617 117.436 12.1377C117.804 12.7137 117.988 13.4417 117.988 14.3217C117.988 15.2657 117.724 16.1297 117.196 16.9137C116.668 17.6977 115.876 18.3297 114.82 18.8097C113.78 19.2897 112.46 19.5297 110.86 19.5297ZM128.061 19.4337C126.541 19.4337 125.357 19.0497 124.509 18.2817C123.661 17.4977 123.237 16.3377 123.237 14.8017V3.4737H126.981V14.7537C126.981 15.2977 127.125 15.7217 127.413 16.0257C127.701 16.3137 128.093 16.4577 128.589 16.4577C129.181 16.4577 129.685 16.2977 130.101 15.9777L131.109 18.6177C130.725 18.8897 130.261 19.0977 129.717 19.2417C129.189 19.3697 128.637 19.4337 128.061 19.4337ZM121.245 9.4977V6.6177H130.197V9.4977H121.245ZM141.356 19.4337C139.98 19.4337 138.756 19.1457 137.684 18.5697C136.628 17.9937 135.788 17.2097 135.164 16.2177C134.556 15.2097 134.252 14.0657 134.252 12.7857C134.252 11.4897 134.556 10.3457 135.164 9.3537C135.788 8.3457 136.628 7.5617 137.684 7.0017C138.756 6.4257 139.98 6.1377 141.356 6.1377C142.716 6.1377 143.932 6.4257 145.004 7.0017C146.076 7.5617 146.916 8.3377 147.524 9.3297C148.132 10.3217 148.436 11.4737 148.436 12.7857C148.436 14.0657 148.132 15.2097 147.524 16.2177C146.916 17.2097 146.076 17.9937 145.004 18.5697C143.932 19.1457 142.716 19.4337 141.356 19.4337ZM141.356 16.3617C141.98 16.3617 142.54 16.2177 143.036 15.9297C143.532 15.6417 143.924 15.2337 144.212 14.7057C144.5 14.1617 144.644 13.5217 144.644 12.7857C144.644 12.0337 144.5 11.3937 144.212 10.8657C143.924 10.3377 143.532 9.9297 143.036 9.6417C142.54 9.3537 141.98 9.2097 141.356 9.2097C140.732 9.2097 140.172 9.3537 139.676 9.6417C139.18 9.9297 138.78 10.3377 138.476 10.8657C138.188 11.3937 138.044 12.0337 138.044 12.7857C138.044 13.5217 138.188 14.1617 138.476 14.7057C138.78 15.2337 139.18 15.6417 139.676 15.9297C140.172 16.2177 140.732 16.3617 141.356 16.3617ZM151.308 19.2417L157.092 11.6577L157.02 13.7217L151.476 6.3297H155.676L159.18 11.1537L157.596 11.2017L161.22 6.3297H165.204L159.636 13.6497V11.6337L165.396 19.2417H161.148L157.476 14.1057L159.036 14.3217L155.388 19.2417H151.308Z" fill="#00C853"/>
</svg>
