<svg version="1.1" xmlns="http://www.w3.org/2000/svg" width="512px" height="512px" transform="rotate(0) scale(1, 1)">
<path d="M0 0 C5.80330125 3.36935089 9.07070538 7.94650695 11.875 13.9375 C13.60808096 22.4295967 11.84591342 29.19056377 9.25 37.25 C4.81323832 51.71258886 0.99490903 66.80216846 0.5 82 C0.47421875 82.62922363 0.4484375 83.25844727 0.421875 83.90673828 C-1.42873864 134.32439374 17.95905592 178.33682105 51.43359375 215.125 C81.38473793 246.15352346 126.36118342 264.02665244 169.09765625 265.16796875 C191.50188025 265.4008815 212.73795247 261.56787594 234.0625 254.625 C242.14865134 252.0447728 248.72722472 252.44590573 256.5 256 C262.33012277 259.6998856 265.3765262 264.43492682 267.5 271 C270.15300846 283.83392841 264.00367099 294.77491084 258.5 306 C258.16403809 306.69802734 257.82807617 307.39605469 257.48193359 308.11523438 C246.98497833 329.70959477 232.01347957 348.72399324 215.5 366 C214.54673828 367.01513672 214.54673828 367.01513672 213.57421875 368.05078125 C208.62751874 373.18637673 203.07432323 377.56968821 197.5 382 C196.54480469 382.78375 195.58960938 383.5675 194.60546875 384.375 C166.95636214 406.52267975 133.90955325 419.81857988 99.5 427 C98.67467773 427.18079102 97.84935547 427.36158203 96.99902344 427.54785156 C43.06650417 438.97019143 -16.94555976 424.93493654 -62.90869141 395.74829102 C-69.38986626 391.5201117 -75.50019586 386.88056319 -81.5 382 C-82.02126465 381.58169922 -82.5425293 381.16339844 -83.07958984 380.73242188 C-97.22505234 369.3395194 -109.72182948 356.61776447 -120.5 342 C-120.92619629 341.43458496 -121.35239258 340.86916992 -121.79150391 340.28662109 C-128.55725613 331.30913602 -134.31829832 321.97319528 -139.5 312 C-140.11125732 310.82655029 -140.11125732 310.82655029 -140.73486328 309.62939453 C-157.05831478 277.86806547 -164.95565783 243.80709023 -164.875 208.1875 C-164.87412384 207.24046204 -164.87324768 206.29342407 -164.87234497 205.31768799 C-164.73734926 160.97089602 -151.95584874 116.10572799 -125.5 80 C-124.8296875 79.05898437 -124.159375 78.11796875 -123.46875 77.1484375 C-103.15795144 49.25788441 -40.27390969 -18.00766959 0 0 Z " fill="#00c853" transform="translate(204.5,42)"/>
</svg>