<svg width="35" height="35" viewBox="0 0 35 35" fill="none" xmlns="http://www.w3.org/2000/svg">
<path d="M33.1523 22.1515C30.3228 23.1153 27.2798 23.2672 24.3684 22.59C21.4569 21.9127 18.7934 20.4334 16.6797 18.3198C14.5661 16.2061 13.0868 13.5426 12.4095 10.6311C11.7323 7.71967 11.8841 4.67671 12.8479 1.84717C10.2747 2.72367 7.9672 4.24136 6.14319 6.25702C4.31918 8.27269 3.03881 10.7198 2.42291 13.3676C1.807 16.0153 1.87586 18.7764 2.623 21.3901C3.37013 24.0038 4.7709 26.3841 6.69313 28.3064C8.61535 30.2286 10.9956 31.6294 13.6094 32.3765C16.2231 33.1236 18.9842 33.1925 21.6319 32.5766C24.2796 31.9607 26.7268 30.6803 28.7425 28.8563C30.7581 27.0323 32.2758 24.7248 33.1523 22.1515Z" fill="#009050" fill-opacity="0.2"/>
<path d="M33.1523 22.0856C30.3228 23.0494 27.2798 23.2013 24.3684 22.5241C21.4569 21.8468 18.7934 20.3675 16.6797 18.2538C14.5661 16.1402 13.0868 13.4767 12.4095 10.5652C11.7323 7.65375 11.8841 4.61079 12.848 1.78125C10.2747 2.65776 7.9672 4.17545 6.14319 6.19111C4.31918 8.20677 3.03881 10.6539 2.42291 13.3017C1.807 15.9494 1.87586 18.7104 2.623 21.3242C3.37013 23.9379 4.7709 26.3182 6.69313 28.2404C8.61535 30.1627 10.9956 31.5634 13.6094 32.3106C16.2231 33.0577 18.9842 33.1266 21.6319 32.5107C24.2796 31.8948 26.7268 30.6144 28.7425 28.7904C30.7581 26.9664 32.2758 24.6589 33.1523 22.0856Z" stroke="#00C853" stroke-width="2.70946" stroke-linecap="square" stroke-linejoin="round"/>
</svg>
